<?xml version="1.0" encoding="UTF-8"?>
<svg id="_图层_2" data-name="图层 2" xmlns="http://www.w3.org/2000/svg" xmlns:xlink="http://www.w3.org/1999/xlink" viewBox="0 0 1024 1024">
  <defs>
    <style>
      .cls-1 {
        fill: url(#_未命名的渐变_237);
      }

      .cls-2 {
        fill: url(#_未命名的渐变_235);
      }

      .cls-3, .cls-4 {
        fill: none;
        stroke: #fff;
        stroke-width: 17px;
      }

      .cls-5, .cls-4 {
        opacity: .4;
      }

      .cls-6 {
        fill: url(#_未命名的渐变_235-2);
      }
    </style>
    <linearGradient id="_未命名的渐变_237" data-name="未命名的渐变 237" x1="511.91" y1="100.78" x2="511.91" y2="924.78" gradientUnits="userSpaceOnUse">
      <stop offset="0" stop-color="#f69756"/>
      <stop offset="1" stop-color="#dd3a2a"/>
    </linearGradient>
    <linearGradient id="_未命名的渐变_235" data-name="未命名的渐变 235" x1="478.87" y1="720.2" x2="478.87" y2="303.8" gradientTransform="translate(-1)" gradientUnits="userSpaceOnUse">
      <stop offset="0" stop-color="#fff" stop-opacity=".8"/>
      <stop offset=".29" stop-color="#fff"/>
    </linearGradient>
    <linearGradient id="_未命名的渐变_235-2" data-name="未命名的渐变 235" x1="745.59" y1="718.2" x2="745.59" y2="627.69" gradientTransform="matrix(1,0,0,1,0,0)" xlink:href="#_未命名的渐变_235"/>
  </defs>
  <g id="_新建符号_246" data-name="新建符号 246">
    <rect class="cls-1" x="99.91" y="100.78" width="824" height="824" rx="184" ry="184"/>
    <g>
      <g>
        <path class="cls-2" d="M496.04,718.2l48.04-166.09h-155.64l-27.36,94.6c-6.01,20.78-18.32,38.63-35.61,51.62-17.29,13-37.86,19.87-59.49,19.87h-27.9l98.61-340.92c6.01-20.78,18.32-38.63,35.61-51.62,17.29-13,37.86-19.87,59.49-19.87h27.9l-48.04,166.09h155.64l27.36-94.6c6.01-20.78,18.32-38.63,35.61-51.62,17.29-13,37.86-19.87,59.49-19.87h27.9l-98.61,340.92c-6.01,20.78-18.32,38.63-35.61,51.62-17.29,13-37.86,19.87-59.49,19.87h-27.9Z"/>
        <g class="cls-5">
          <path class="cls-3" d="M470.77,737.2l48.04-166.09h-116.08l-23.4,80.88c-7.16,24.76-21.84,46.04-42.45,61.53s-45.12,23.68-70.9,23.68h-53.18l105.64-365.2c7.16-24.76,21.84-46.04,42.45-61.53,20.61-15.49,45.12-23.68,70.9-23.68h53.18l-48.04,166.09h116.08l23.4-80.88c7.16-24.76,21.84-46.04,42.45-61.53s45.12-23.68,70.9-23.68h53.18l-105.64,365.2c-7.16,24.76-21.84,46.04-42.45,61.53s-45.12,23.68-70.9,23.68h-53.18Z"/>
        </g>
      </g>
      <g>
        <path class="cls-6" d="M745.6,718.2c-24.96,0-45.26-20.3-45.26-45.26s20.3-45.26,45.26-45.26,45.26,20.3,45.26,45.26-20.3,45.26-45.26,45.26Z"/>
        <path class="cls-4" d="M745.6,737.2c-35.43,0-64.26-28.83-64.26-64.26s28.83-64.26,64.26-64.26,64.26,28.83,64.26,64.26-28.83,64.26-64.26,64.26Z"/>
      </g>
    </g>
  </g>
</svg>